<svg xmlns="http://www.w3.org/2000/svg" viewBox="0 0 640 360" role="img" aria-labelledby="title desc"><title id="title">A failure you can replay</title><desc id="desc">The same explicit seed and compatible configuration recreate a fixture.</desc><path d="M151 78C220 9 421 9 487 78M487 278C421 347 220 347 151 278" fill="none" stroke="#152725" stroke-width="3" stroke-dasharray="7 9"/><g transform="translate(75 103) scale(1.3)"><path d="M28 50C24 29 37 14 58 18C73 6 96 16 101 37C106 42 113 40 116 34C120 26 114 20 110 25C106 29 103 25 105 20C112 5 132 13 133 28C136 50 119 64 103 59L99 84C95 104 80 111 62 101C43 112 22 99 24 79Z" fill="#b6ef86" stroke="#152725" stroke-width="4" stroke-linejoin="round"/><ellipse cx="51" cy="55" rx="5" ry="8" fill="#152725"/><ellipse cx="76" cy="49" rx="5" ry="8" fill="#152725"/><path d="M54 74Q68 83 79 68" fill="none" stroke="#152725" stroke-width="4" stroke-linecap="round"/><ellipse cx="86" cy="63" rx="7" ry="4" fill="#f27b62"/></g><g transform="translate(376 103) scale(1.3)"><path d="M28 50C24 29 37 14 58 18C73 6 96 16 101 37C106 42 113 40 116 34C120 26 114 20 110 25C106 29 103 25 105 20C112 5 132 13 133 28C136 50 119 64 103 59L99 84C95 104 80 111 62 101C43 112 22 99 24 79Z" fill="#b6ef86" stroke="#152725" stroke-width="4" stroke-linejoin="round"/><ellipse cx="51" cy="55" rx="5" ry="8" fill="#152725"/><ellipse cx="76" cy="49" rx="5" ry="8" fill="#152725"/><path d="M54 74Q68 83 79 68" fill="none" stroke="#152725" stroke-width="4" stroke-linecap="round"/><ellipse cx="86" cy="63" rx="7" ry="4" fill="#f27b62"/></g><rect x="235" y="144" width="167" height="61" rx="18" fill="#b6ef86" stroke="#152725" stroke-width="2"/><text x="263" y="183" fill="#152725" font-size="22" font-family="system-ui, -apple-system, Segoe UI, sans-serif" font-weight="600">seed: 42</text><text x="56" y="63" fill="#152725" font-size="18" font-family="system-ui, -apple-system, Segoe UI, sans-serif" font-weight="600">First run</text><text x="473" y="310" fill="#152725" font-size="18" font-family="system-ui, -apple-system, Segoe UI, sans-serif" font-weight="600">Replay</text></svg>
