<svg xmlns="http://www.w3.org/2000/svg" viewBox="0 0 640 360" role="img" aria-labelledby="title desc"><title id="title">Schema rules become matching fixture values</title><desc id="desc">A schema requires an integer age of at least 18, the role admin and a boolean active field. The generated fixture has age 24, role admin and active true.</desc>
<rect width="640" height="360" rx="22" fill="#faf7ee"/>
<text x="24" y="42" fill="#152725" font-size="23" font-weight="750" font-family="system-ui, -apple-system, Segoe UI, sans-serif" text-anchor="start">Rules in. Matching data out.</text>
<g transform="translate(554 1) scale(.5)"><g transform="translate(-1 -18) scale(.65)"><g transform="translate(120 183) rotate(0) scale(1 1) translate(-120 -183) translate(0 0)"><g fill="#b6ef86"><path d="M76 172H107V181H76ZM134 172H163V181H134Z"/></g><g fill="#b6ef86" stroke="#152725" stroke-width="6.9" stroke-linecap="round" stroke-linejoin="round"><path d="M76 173L75 180Q71 192 88 192Q104 193 107 178"/><path d="M133 178Q134 192 149 192Q168 193 164 177"/></g><g><path fill="#b6ef86" d="M49 96C49 60 69 50 98 47L142 43C151 42 156 46 164 53L185 74C190 80 192 86 192 96L193 139C194 160 185 173 164 177L133 178L107 178L76 177C56 172 49 160 49 139Z"/></g><g><path d="M147 43.8C153 43.8 157 46.9 164 53L185 74Q189 78.8 190.5 83.5L165 83.5C153 83.5 148 79 148 66Z" fill="#faf7ee"/><path d="M147 44L148 66C148 79 153 83.5 165 83.5H190.5" fill="none" stroke="#152725" stroke-width="6.1" stroke-linecap="round" stroke-linejoin="round"/></g><g><path d="M76 177C56 172 49 160 49 139V96C49 60 69 50 98 47L142 43C151 42 156 46 164 53L185 74C190 80 192 86 192 96L193 139C194 160 185 173 164 177M133 178H107" fill="none" stroke="#152725" stroke-width="6.9" stroke-linecap="round" stroke-linejoin="round"/></g><g transform="translate(0 0) scale(1 1)"><g fill="#152725" transform="translate(0 0)"><ellipse cx="94" cy="113" rx="9.2" ry="13.8" transform="rotate(-5 94 113)"/><ellipse cx="139.5" cy="105.5" rx="9.2" ry="13.8" transform="rotate(-4 139.5 105.5)"/></g></g><g><ellipse cx="159" cy="122" rx="10" ry="7" fill="#f27b62"/></g><g stroke="#152725" stroke-width="5.5" stroke-linecap="round" stroke-linejoin="round"><path d="M110.8 132.9C115.5 136.8 125.7 138 129 129.8" fill="none" stroke-width="6.8"/></g></g></g></g>
<rect x="24" y="78" width="252" height="226" rx="14" fill="#faf7ee" stroke="#152725" stroke-width="2"/><rect x="364" y="78" width="252" height="226" rx="14" fill="#faf7ee" stroke="#152725" stroke-width="2"/><text x="44" y="114" fill="#152725" font-size="21" font-weight="750" font-family="system-ui, -apple-system, Segoe UI, sans-serif" text-anchor="start">Your schema</text><text x="384" y="114" fill="#152725" font-size="21" font-weight="750" font-family="system-ui, -apple-system, Segoe UI, sans-serif" text-anchor="start">Generated fixture</text><path d="M24 134H276M364 134H616" stroke="#152725" stroke-opacity=".18"/><text x="44" y="174" fill="#152725" font-size="19" font-weight="500" font-family="ui-monospace, SFMono-Regular, Consolas, monospace" text-anchor="start">age: integer ≥ 18</text><text x="384" y="174" fill="#152725" font-size="19" font-weight="600" font-family="ui-monospace, SFMono-Regular, Consolas, monospace" text-anchor="start">age: 24</text><text x="44" y="223" fill="#152725" font-size="19" font-weight="500" font-family="ui-monospace, SFMono-Regular, Consolas, monospace" text-anchor="start">role: &quot;admin&quot;</text><text x="384" y="223" fill="#152725" font-size="19" font-weight="600" font-family="ui-monospace, SFMono-Regular, Consolas, monospace" text-anchor="start">role: &quot;admin&quot;</text><text x="44" y="272" fill="#152725" font-size="19" font-weight="500" font-family="ui-monospace, SFMono-Regular, Consolas, monospace" text-anchor="start">active: boolean</text><text x="384" y="272" fill="#152725" font-size="19" font-weight="600" font-family="ui-monospace, SFMono-Regular, Consolas, monospace" text-anchor="start">active: true</text><path d="M293 193H345M336 184L345 193L336 202" fill="none" stroke="#152725" stroke-width="3" stroke-linecap="round" stroke-linejoin="round"/><text x="320" y="336" fill="#152725" font-size="20" font-weight="600" font-family="system-ui, -apple-system, Segoe UI, sans-serif" text-anchor="middle">The values satisfy the rules.</text></svg>
