<svg xmlns="http://www.w3.org/2000/svg" viewBox="0 0 1200 630" role="img" aria-labelledby="title desc"><title id="title">Mimlet — Test data, with character.</title><desc id="desc">Typed fixtures. Coherent scenarios. Failures you can replay.</desc><rect width="1200" height="630" rx="28" fill="#faf7ee"/><path d="M760 0V630M1040 0V630M0 440H1200" stroke="#dcded2" stroke-width="1"/><text x="64" y="100" fill="#152725" font-size="23" font-family="system-ui, -apple-system, Segoe UI, sans-serif" font-weight="800">MIMLET</text><text x="60" y="221" fill="#152725" font-size="74" font-family="system-ui, -apple-system, Segoe UI, sans-serif" font-weight="800">Test data,</text><text x="60" y="311" fill="#152725" font-size="74" font-family="system-ui, -apple-system, Segoe UI, sans-serif" font-weight="800">with character.</text><text x="65" y="385" fill="#152725" font-size="25" font-family="system-ui, -apple-system, Segoe UI, sans-serif" font-weight="450">Typed fixtures. Coherent scenarios.</text><text x="65" y="423" fill="#152725" font-size="25" font-family="system-ui, -apple-system, Segoe UI, sans-serif" font-weight="450">Failures you can replay.</text><g transform="translate(754 156) scale(2.85)"><path d="M28 50C24 29 37 14 58 18C73 6 96 16 101 37C106 42 113 40 116 34C120 26 114 20 110 25C106 29 103 25 105 20C112 5 132 13 133 28C136 50 119 64 103 59L99 84C95 104 80 111 62 101C43 112 22 99 24 79Z" fill="#b6ef86" stroke="#152725" stroke-width="4" stroke-linejoin="round"/><ellipse cx="51" cy="55" rx="5" ry="8" fill="#152725"/><ellipse cx="76" cy="49" rx="5" ry="8" fill="#152725"/><path d="M54 74Q68 83 79 68" fill="none" stroke="#152725" stroke-width="4" stroke-linecap="round"/><ellipse cx="86" cy="63" rx="7" ry="4" fill="#f27b62"/></g><rect x="64" y="509" width="230" height="51" rx="25" fill="#152725"/><text x="88" y="542" fill="#faf7ee" font-size="18" font-family="system-ui, -apple-system, Segoe UI, sans-serif" font-weight="600">Made for your schema</text><text x="787" y="554" fill="#152725" font-size="52" font-family="system-ui, -apple-system, Segoe UI, sans-serif" font-weight="850">mimlet</text></svg>
